<?xml version="1.0" encoding="iso-8859-1"?>
<!-- Generator: Adobe Illustrator 19.0.0, SVG Export Plug-In . SVG Version: 6.00 Build 0)  -->
<svg version="1.1" id="Layer_1" xmlns="http://www.w3.org/2000/svg" xmlns:xlink="http://www.w3.org/1999/xlink" x="0px" y="0px"
	 viewBox="0 0 505 505" style="enable-background:new 0 0 505 505;" xml:space="preserve">
<circle style="fill:#324A5E;" cx="252.5" cy="252.5" r="252.5"/>
<polygon style="fill:#FFFFFF;" points="325.6,86.1 325.6,139.7 379.1,139.7 379.1,418.9 125.9,418.9 125.9,86.1 "/>
<polygon style="fill:#E6E9EE;" points="325.6,86.1 379.1,139.7 325.6,139.7 "/>
<path style="fill:#54C0EB;" d="M203.3,240h-47.8v-47.8h47.8V240z M160.3,235.3h38.4v-38.4h-38.4L160.3,235.3L160.3,235.3z"/>
<polygon style="fill:#FF7058;" points="182.7,230.5 165.1,212.9 173.4,204.6 182.7,213.9 208.4,188.1 216.7,196.4 "/>
<path style="fill:#54C0EB;" d="M203.3,311.5h-47.8v-47.8h47.8V311.5z M160.3,306.8h38.4v-38.3h-38.4L160.3,306.8L160.3,306.8z"/>
<polygon style="fill:#FF7058;" points="182.7,302 165.1,284.4 173.4,276.1 182.7,285.4 208.4,259.6 216.7,267.9 "/>
<path style="fill:#54C0EB;" d="M203.3,383h-47.8v-47.8h47.8V383z M160.3,378.3h38.4v-38.4h-38.4L160.3,378.3L160.3,378.3z"/>
<polygon style="fill:#FF7058;" points="182.7,373.5 165.1,355.9 173.4,347.6 182.7,356.9 208.4,331.1 216.7,339.4 "/>
<g>
	<rect x="229.9" y="205.9" style="fill:#E6E9EE;" width="111.4" height="10.5"/>
	<rect x="229.9" y="229.5" style="fill:#E6E9EE;" width="55.5" height="10.5"/>
	<rect x="229.9" y="277.4" style="fill:#E6E9EE;" width="111.4" height="10.5"/>
	<rect x="229.9" y="301" style="fill:#E6E9EE;" width="55.5" height="10.5"/>
	<rect x="229.9" y="348.9" style="fill:#E6E9EE;" width="111.4" height="10.5"/>
	<rect x="229.9" y="372.5" style="fill:#E6E9EE;" width="55.5" height="10.5"/>
</g>
<g>
</g>
<g>
</g>
<g>
</g>
<g>
</g>
<g>
</g>
<g>
</g>
<g>
</g>
<g>
</g>
<g>
</g>
<g>
</g>
<g>
</g>
<g>
</g>
<g>
</g>
<g>
</g>
<g>
</g>
</svg>
